<?xml version="1.0" encoding="UTF-8" standalone="no"?>
<!DOCTYPE svg PUBLIC "-//W3C//DTD SVG 1.1//EN" "http://www.w3.org/Graphics/SVG/1.1/DTD/svg11.dtd">
<svg width="100%" height="100%" viewBox="0 0 1000 500" version="1.1" xmlns="http://www.w3.org/2000/svg" xmlns:xlink="http://www.w3.org/1999/xlink" xml:space="preserve" xmlns:serif="http://www.serif.com/" style="fill-rule:evenodd;clip-rule:evenodd;stroke-linejoin:round;stroke-miterlimit:2;">
    <g transform="matrix(0.833333,0,0,0.833333,4.44089e-15,83.3333)">
        <path d="M1214.4,201.8L1200,449.422C1200,477.337 1177.34,500 1149.42,500L50.578,500C22.663,500 0,477.337 0,449.422L0,337.507C23.896,332.16 57.471,326.237 105.332,320.347C336.626,291.88 408.213,260.064 432.704,249.179C444.12,244.105 540.378,213.075 580.514,198.814C599.202,192.174 691.401,174.192 697,173C727.766,166.45 864.052,165.92 900,165.382C959.943,164.484 1058.96,170.773 1200,200C1208.13,201.685 1201.92,192.57 1214.4,201.8Z" style="fill:rgb(33,150,243);fill-opacity:0.73;"/>
    </g>
    <g transform="matrix(0.833333,0,0,0.833333,4.44089e-15,83.3333)">
        <path d="M1200,403.458L1200,449.422C1200,477.337 1177.34,500 1149.42,500L50.578,500C22.663,500 0,477.337 0,449.422L-0,153.696C19.186,152.488 46.546,149.849 50,150C131.971,153.588 121.279,148.235 200,160C253.505,167.996 244.67,170.467 295.843,178.765C312.759,181.509 555.089,244.386 581.609,276.211C588.325,284.27 649.731,338.852 663.726,348.473C673.027,354.868 832.536,428.058 923.215,431.685C1011.05,435.198 1125.3,423.605 1200,403.458Z" style="fill:rgb(33,150,243);fill-opacity:0.43;"/>
    </g>
    <g transform="matrix(0.833333,0,0,0.833333,4.44089e-15,83.3333)">
        <path d="M1200,381.025L1200,449.422C1200,477.337 1177.34,500 1149.42,500L406.949,500C482.433,377.479 684.716,327.349 740.26,325.544C801.264,323.561 1151.15,338.966 1194.64,374.814C1196.84,376.627 1198.28,379.046 1200,381.025Z" style="fill:rgb(33,150,243);"/>
    </g>
    <g transform="matrix(0.769231,0,0,0.769231,219.231,19.2308)">
        <circle cx="235" cy="105" r="65" style="fill:rgb(33,150,243);fill-opacity:0.73;"/>
    </g>
    <g transform="matrix(1.0989,0,0,1.04167,0,0)">
        <path d="M910,38.4L910,441.6C910,462.794 893.69,480 873.6,480L36.4,480C16.31,480 0,462.794 0,441.6L0,38.4C0,17.206 16.31,0 36.4,0L873.6,0C893.69,0 910,17.206 910,38.4Z" style="fill:rgb(33,150,243);fill-opacity:0.18;"/>
    </g>
</svg>
